# xmcd
#
# Track frame offsets:
#	150
#	12508
#	25204
#	34155
#	44834
#	54757
#	65012
#	74977
#	84877
#	96317
#	112003
#	122618
#	132723
#	142615
#	152439
#	163150
#	176979
#	187945
#	199286
#	213022
#	223706
#	234742
#	246736
#	256342
#	264833
#
# Disc length: 3699 seconds
#
# Revision: 1
# Processed by: cddbd v1.5.2PL0 Copyright (c) Steve Scherf et al.
# Submitted via: audiograbber 1.83.01
#
DISCID=7a0e7119
DTITLE=Patsy Cline - The Anthology CD 1
DYEAR=1900
DGENRE=
TTITLE0=Crazy
TTITLE1=I Fall To Pieces
TTITLE2=Anytime
TTITLE3=Your Cheatin' Heart
TTITLE4=Foolin' Around
TTITLE5=Who Can I Count On
TTITLE6=Seven Lonely Days
TTITLE7=Lovin' In Vain
TTITLE8=Crazy Dreams
TTITLE9=Why Can't He Be You
TTITLE10=Gotta Lotta Rhythm In My Soul
TTITLE11=I Love You So Much It Hurts
TTITLE12=Turn The Cards Slowly
TTITLE13=I'm Blue Again
TTITLE14=I Can See An Angel
TTITLE15=You Belong To Me
TTITLE16=South Of The Border (Down Mexico Way)
TTITLE17=So Wrong
TTITLE18=Honky Tonk Merry Go Round
TTITLE19=I Can't Forget You
TTITLE20=I Can't Forget You
TTITLE21=Today Tomorrow And Forever
TTITLE22=True Love
TTITLE23=Com On In (And Make Yourself At Home)
TTITLE24=Just A Closer Walk With Thee
EXTD=
EXTT0=
EXTT1=
EXTT2=
EXTT3=
EXTT4=
EXTT5=
EXTT6=
EXTT7=
EXTT8=
EXTT9=
EXTT10=
EXTT11=
EXTT12=
EXTT13=
EXTT14=
EXTT15=
EXTT16=
EXTT17=
EXTT18=
EXTT19=
EXTT20=
EXTT21=
EXTT22=
EXTT23=
EXTT24=
PLAYORDER=
